<svg width="192" height="28" viewBox="0 0 192 28" fill="none" xmlns="http://www.w3.org/2000/svg">
<path d="M54.4422 27.3C52.8422 27.3 51.6322 26.85 50.8122 25.95C49.9922 25.03 49.5822 23.72 49.5822 22.02V20.82H52.7022V22.26C52.7022 23.62 53.2722 24.3 54.4122 24.3C54.9722 24.3 55.3922 24.14 55.6722 23.82C55.9722 23.48 56.1222 22.94 56.1222 22.2C56.1222 21.32 55.9222 20.55 55.5222 19.89C55.1222 19.21 54.3822 18.4 53.3022 17.46C51.9422 16.26 50.9922 15.18 50.4522 14.22C49.9122 13.24 49.6422 12.14 49.6422 10.92C49.6422 9.26 50.0622 7.98 50.9022 7.08C51.7422 6.16 52.9622 5.7 54.5622 5.7C56.1422 5.7 57.3322 6.16 58.1322 7.08C58.9522 7.98 59.3622 9.28 59.3622 10.98V11.85H56.2422V10.77C56.2422 10.05 56.1022 9.53 55.8222 9.21C55.5422 8.87 55.1322 8.7 54.5922 8.7C53.4922 8.7 52.9422 9.37 52.9422 10.71C52.9422 11.47 53.1422 12.18 53.5422 12.84C53.9622 13.5 54.7122 14.3 55.7922 15.24C57.1722 16.44 58.1222 17.53 58.6422 18.51C59.1622 19.49 59.4222 20.64 59.4222 21.96C59.4222 23.68 58.9922 25 58.1322 25.92C57.2922 26.84 56.0622 27.3 54.4422 27.3ZM61.3144 6H66.0244L68.1244 21.03H68.1844L70.2844 6H74.9944V27H71.8744V11.1H71.8144L69.4144 27H66.6544L64.2544 11.1H64.1944V27H61.3144V6ZM82.2269 27.3C80.6069 27.3 79.3669 26.84 78.5069 25.92C77.6469 25 77.2169 23.7 77.2169 22.02V10.98C77.2169 9.3 77.6469 8 78.5069 7.08C79.3669 6.16 80.6069 5.7 82.2269 5.7C83.8469 5.7 85.0869 6.16 85.9469 7.08C86.8069 8 87.2369 9.3 87.2369 10.98V22.02C87.2369 23.7 86.8069 25 85.9469 25.92C85.0869 26.84 83.8469 27.3 82.2269 27.3ZM82.2269 24.3C83.3669 24.3 83.9369 23.61 83.9369 22.23V10.77C83.9369 9.39 83.3669 8.7 82.2269 8.7C81.0869 8.7 80.5169 9.39 80.5169 10.77V22.23C80.5169 23.61 81.0869 24.3 82.2269 24.3ZM94.2386 27.3C92.6186 27.3 91.3786 26.84 90.5186 25.92C89.6586 25 89.2286 23.7 89.2286 22.02V10.98C89.2286 9.3 89.6586 8 90.5186 7.08C91.3786 6.16 92.6186 5.7 94.2386 5.7C95.8586 5.7 97.0986 6.16 97.9586 7.08C98.8186 8 99.2486 9.3 99.2486 10.98V22.02C99.2486 23.7 98.8186 25 97.9586 25.92C97.0986 26.84 95.8586 27.3 94.2386 27.3ZM94.2386 24.3C95.3786 24.3 95.9486 23.61 95.9486 22.23V10.77C95.9486 9.39 95.3786 8.7 94.2386 8.7C93.0986 8.7 92.5286 9.39 92.5286 10.77V22.23C92.5286 23.61 93.0986 24.3 94.2386 24.3ZM103.943 9H100.493V6H110.693V9H107.243V27H103.943V9ZM112.291 6H115.591V14.55H119.131V6H122.431V27H119.131V17.55H115.591V27H112.291V6ZM132.243 6H136.713L140.133 27H136.833L136.233 22.83V22.89H132.483L131.883 27H128.823L132.243 6ZM135.843 20.04L134.373 9.66H134.313L132.873 20.04H135.843ZM141.734 6H145.874L149.084 18.57H149.144V6H152.084V27H148.694L144.734 11.67H144.674V27H141.734V6ZM159.217 27.3C157.617 27.3 156.397 26.85 155.557 25.95C154.717 25.03 154.297 23.72 154.297 22.02V10.98C154.297 9.28 154.717 7.98 155.557 7.08C156.397 6.16 157.617 5.7 159.217 5.7C160.817 5.7 162.037 6.16 162.877 7.08C163.717 7.98 164.137 9.28 164.137 10.98V12.78H161.017V10.77C161.017 9.39 160.447 8.7 159.307 8.7C158.167 8.7 157.597 9.39 157.597 10.77V22.26C157.597 23.62 158.167 24.3 159.307 24.3C160.447 24.3 161.017 23.62 161.017 22.26V18.15H159.367V15.15H164.137V22.02C164.137 23.72 163.717 25.03 162.877 25.95C162.037 26.85 160.817 27.3 159.217 27.3ZM166.256 6H169.556V24H174.986V27H166.256V6ZM176.568 6H185.568V9H179.868V14.55H184.398V17.55H179.868V24H185.568V27H176.568V6Z" fill="#F3F16A"/>
<path d="M25.8959 15.5C25.8959 21.8156 20.5656 27 13.9091 27C7.25258 27 1.92224 21.8156 1.92224 15.5C1.92224 9.18439 7.25258 4 13.9091 4C20.5656 4 25.8959 9.18439 25.8959 15.5Z" stroke="#F3F16A" stroke-width="2"/>
<path d="M39.1591 15.5C39.1591 21.8156 33.8288 27 27.1723 27C20.5158 27 15.1854 21.8156 15.1854 15.5C15.1854 9.18439 20.5158 4 27.1723 4C33.8288 4 39.1591 9.18439 39.1591 15.5Z" stroke="#F3F16A" stroke-width="2"/>
<ellipse cx="20.5407" cy="15.8289" rx="6.35526" ry="5.59211" fill="#F3F16A"/>
</svg>
